HIERARCHY
ROOT Hips
{
  OFFSET -32.5998 29.0326 120.673
  CHANNELS 6 Xposition Yposition Zposition Zrotation Xrotation Yrotation
  JOINT LeftUpLeg
  {
    OFFSET 8.64259 1.95398 -2.38835
    CHANNELS 3 Zrotation Xrotation Yrotation
    JOINT LeftLeg
    {
      OFFSET 43.7702 0 0
      CHANNELS 3 Zrotation Xrotation Yrotation
      JOINT LeftFoot
      {
        OFFSET 40.6238 0 0
        CHANNELS 3 Zrotation Xrotation Yrotation
        JOINT LeftToeBase
        {
          OFFSET 12.7242 0 0
          CHANNELS 3 Zrotation Xrotation Yrotation
          End Site
          {
            OFFSET 0 0 0
          }
        }
      }
    }
  }
  JOINT RightUpLeg
  {
    OFFSET -8.2249 1.95398 -2.59336
    CHANNELS 3 Zrotation Xrotation Yrotation
    JOINT RightLeg
    {
      OFFSET 43.5653 0 0
      CHANNELS 3 Zrotation Xrotation Yrotation
      JOINT RightFoot
      {
        OFFSET 40.6238 0 0
        CHANNELS 3 Zrotation Xrotation Yrotation
        JOINT RightToeBase
        {
          OFFSET 12.7242 0 0
          CHANNELS 3 Zrotation Xrotation Yrotation
          End Site
          {
            OFFSET 0 0 0
          }
        }
      }
    }
  }
  JOINT Spine
  {
    OFFSET 0.165834 0.87714 6.61349
    CHANNELS 3 Zrotation Xrotation Yrotation
    JOINT Spine1
    {
      OFFSET 7.38963 1.71661e-005 0
      CHANNELS 3 Zrotation Xrotation Yrotation
      JOINT Spine2
      {
        OFFSET 11.9445 1.14441e-005 0
        CHANNELS 3 Zrotation Xrotation Yrotation
        JOINT Spine3
        {
          OFFSET 14.7254 4.19617e-005 0
          CHANNELS 3 Zrotation Xrotation Yrotation
          JOINT Spine4
          {
            OFFSET 10.9679 0 0
            CHANNELS 3 Zrotation Xrotation Yrotation
            JOINT RightShoulder
            {
              OFFSET 2.46616 -1.6653 3.69651
              CHANNELS 3 Zrotation Xrotation Yrotation
              JOINT RightArm
              {
                OFFSET 13.0012 0 0
                CHANNELS 3 Zrotation Xrotation Yrotation
                JOINT RightForeArm
                {
                  OFFSET 28.7848 1.62311e-005 0
                  CHANNELS 3 Zrotation Xrotation Yrotation
                  JOINT RightHand
                  {
                    OFFSET 26.5688 1.62095e-005 0
                    CHANNELS 3 Zrotation Xrotation Yrotation
                    End Site
                    {
                      OFFSET 0 0 0
                    }
                  }
                }
              }
            }
            JOINT LeftShoulder
            {
              OFFSET 2.38034 -1.29275 -3.7523
              CHANNELS 3 Zrotation Xrotation Yrotation
              JOINT LeftArm
              {
                OFFSET 16.3182 6.07031e-005 0
                CHANNELS 3 Zrotation Xrotation Yrotation
                JOINT LeftForeArm
                {
                  OFFSET 27.0901 0 0
                  CHANNELS 3 Zrotation Xrotation Yrotation
                  JOINT LeftHand
                  {
                    OFFSET 24.5451 1.51738e-005 0
                    CHANNELS 3 Zrotation Xrotation Yrotation
                    End Site
                    {
                      OFFSET 0 0 0
                    }
                  }
                }
              }
            }
            JOINT Neck
            {
              OFFSET 5.0226 -0.0266342 0
              CHANNELS 3 Zrotation Xrotation Yrotation
              JOINT Head
              {
                OFFSET 6.69364 2.86102e-005 0
                CHANNELS 3 Zrotation Xrotation Yrotation
                End Site
                {
                  OFFSET 0 0 0
                }
              }
            }
          }
        }
      }
    }
  }
}
MOTION
Frames:	13
Frame Time:	0.0416667
-291.444 92.0519 299.653 103.369 38.6941 87.0293 -166.487 -18.0113 100.494 -38.4006 16.3279 2.64526 63.9875 2.35289 1.94734 21.6061 -3.86828 1.76563 177.07 16.1902 98.5288 -32.5771 -7.194 1.36462 66.1807 -1.6801 2.13511 18.6601 4.16643 1.43922 -0.417657 7.81143 -90.6511 11.2439 -1.13415 -1.18432 -0.427082 -1.18517 -1.13327 -22.9598 -0.725817 -1.47038 -2.94719 -0.725827 -1.47038 93.6616 -25.6147 -100.726 49.993 -7.69723 7.44132 -7.32783 -0.186347 -7.90815 -10.7284 0.0599864 -6.07933 -87.1039 -48.1835 82.7628 -17.2956 21.7583 -23.8374 9.57588 -1.14281 -14.3602 -7.0436 0.130485 -9.78452 0.226316 1.67921 -2.48177 -9.73301 1.98659 0.554733 
-284.161 93.3232 294.576 105.743 36.4428 86.116 -166.63 -5.76704 102.302 -56.5062 15.1374 1.77417 54.6286 -4.26022 0.210987 3.99169 -10.9583 -0.3101 177.395 7.3439 99.3348 -31.461 -11.8336 0.894715 69.0533 -4.4951 -2.84251 22.2729 2.51517 1.47277 0.125393 8.12982 -90.6331 10.612 -0.0414724 -1.25549 -1.05955 -0.0966935 -1.25246 -23.5903 0.337722 -1.20993 -3.57768 0.337741 -1.20993 93.5153 -25.8094 -100.978 48.6292 -9.64387 4.39579 -7.90755 -2.01952 -12.3312 -10.3344 0.133237 -6.97304 -86.5341 -47.8977 83.5913 -23.115 20.6782 -15.5112 10.5909 1.7348 -13.4829 -1.39408 -0.114428 -5.1362 3.10141 0.852939 -2.42388 -9.59653 1.16403 1.6138 
-279.318 94.4765 290.694 103.793 41.0461 85.7035 -171.62 9.61734 95.9742 -63.8266 11.8003 2.5949 68.0616 4.2864 2.15204 5.83994 -10.6067 0.468145 176.283 2.80045 98.056 -27.7908 -6.89787 1.0946 72.1714 -5.94661 -0.0610994 21.7924 2.38301 2.55701 0.218415 7.99838 -90.4844 10.8785 0.211012 -0.982829 -0.792826 0.167557 -0.991169 -23.3254 0.496621 -0.873991 -3.31275 0.49663 -0.873989 93.3547 -26.2342 -101.186 45.2927 -12.4181 0.369664 -10.0935 -7.60864 -18.7976 -10.3812 -0.0160726 -5.22677 -86.3629 -47.5252 83.7955 -26.6199 22.5342 -8.75321 9.78605 2.0085 -11.0093 -2.20244 -0.0878133 -2.98426 2.04686 -1.33524 -2.86986 -7.28491 -0.973813 3.03169 
-273.975 95.1021 285.283 102.638 40.8947 83.5013 -173.792 17.6779 89.34 -50.5859 2.64469 0.634456 72.6537 6.97624 0.107575 8.85956 -13.0893 6.45426 174.606 -3.13089 94.2974 -24.8104 -7.03022 0.122347 75.5218 -7.27783 2.24891 23.2021 1.98081 1.85042 0.748107 8.05512 -90.1221 10.7679 1.43343 -0.375473 -0.902377 1.41552 -0.438219 -23.4439 1.47998 0.0727778 -3.43125 1.48 0.0727823 93.2945 -26.0599 -101.37 40.6978 -13.2987 -5.28417 -11.2288 -8.4399 -21.9069 -12.4517 -0.12707 -4.14197 -86.1427 -46.1082 83.9104 -30.7651 20.3193 -1.5206 9.21308 -1.03521 -10.812 -2.5474 -0.0882446 -4.23821 2.3229 -2.74231 -2.66808 -6.86096 -2.3804 3.28142 
-268.327 94.3905 279.92 102.27 39.0263 81.8694 -174.835 18.6242 86.1179 -24.1528 -0.365149 -1.60367 63.3976 2.63725 -0.486337 14.9118 -9.39379 5.85896 173.071 -8.22537 91.226 -24.6736 -9.93976 -0.95721 79.7658 -9.50542 2.91444 24.3657 2.335 -1.07952 1.10063 8.19988 -89.9652 10.4769 2.20836 -0.126683 -1.19218 2.20066 -0.223811 -23.7418 2.14429 0.543193 -3.72915 2.1443 0.543198 93.1512 -24.5424 -102.192 35.7698 -13.7828 -12.0524 -12.7546 -10.1511 -24.3815 -12.1126 -0.297548 -2.40717 -85.7926 -48.2331 84.7858 -31.2717 16.2883 6.64692 10.2673 -0.474722 -13.6036 -3.82856 -0.110667 -2.78658 3.32087 -2.26405 1.48066 -6.48849 -2.52952 1.70976 
-261.552 92.752 273.525 102.671 37.8743 81.2759 -177.094 17.9086 85.5165 -7.0995 -4.65411 -1.75708 62.1665 2.35462 -2.58809 14.0893 -9.82775 5.85125 170.551 -16.0427 88.3769 -22.0898 -12.5177 -1.05215 82.2136 -11.7707 1.84916 26.7261 1.05753 -0.441408 1.24955 8.32002 -89.9579 10.2368 2.50892 -0.130609 -1.43172 2.50073 -0.240991 -23.9855 2.43211 0.62992 -3.97285 2.43209 0.629908 92.4661 -24.7365 -103.619 29.7208 -13.332 -17.573 -12.9619 -9.01701 -26.3716 -14.2187 -0.33575 -2.47853 -85.9637 -50.2847 84.8266 -31.1249 12.7418 12.2968 9.1864 -4.93408 -11.8228 -3.28387 -0.100127 -3.14865 3.66478 -1.42846 3.36099 -5.2255 -2.0084 1.29011 
-253.822 91.5574 266.272 102.06 34.8904 81.0123 -175.863 20.2952 85.0349 -15.0077 -3.0105 -2.51925 58.411 -1.23483 -2.34525 11.4062 -11.1526 5.63713 166.413 -22.2869 82.965 -20.4079 -19.5658 -1.64776 79.6065 -12.3281 -1.2813 32.279 -1.47425 -0.689999 1.54676 8.31921 -89.8376 10.2392 3.15603 0.0517436 -1.42794 3.15524 -0.0873513 -23.9915 2.99446 0.998723 -3.97882 2.99445 0.998719 92.6727 -24.2641 -103.339 30.8858 -9.51986 -20.952 -16.2653 -12.622 -28.9461 -16.6416 -0.704934 -0.527903 -85.089 -51.6533 86.321 -30.447 12.8366 12.2816 8.22634 -9.07237 -4.13678 -3.42524 -0.103654 -2.9724 6.35972 -0.917137 3.89582 -6.30088 -1.67813 0.9793 
-245.771 92.227 258.649 100.548 33.1538 79.7123 -173.466 21.1599 82.793 -27.8364 -0.224116 -4.57988 62.586 -0.119481 -0.289139 6.90253 -12.782 4.38667 166.154 -19.9365 79.748 -30.3775 -21.3227 -4.99857 67.397 -4.34947 -2.65821 42.3335 -6.43133 4.64984 1.49727 8.1046 -89.4859 10.657 3.21855 0.727936 -1.01004 3.24747 0.585429 -23.57 2.85088 1.66226 -3.55741 2.85088 1.66226 92.3913 -23.8278 -104.125 35.2217 -11.5732 -18.4487 -17.4991 -12.5893 -32.2454 -15.1729 -0.509602 -1.48061 -85.2699 -51.2628 86.002 -30.3274 13.0084 10.0429 8.23464 -12.0159 -0.388459 -3.13278 -0.0981501 -3.28918 6.69711 -0.421759 3.37319 -6.91405 -1.09146 0.383906 
-238.901 93.5232 251.773 101.228 34.1749 77.0767 -173.495 14.4662 79.8231 -29.1825 0.94521 -5.22284 68.9213 4.49003 1.36629 7.77623 -12.34 4.44264 169.386 -8.24461 78.7024 -54.2333 -22.2794 -7.12948 56.5246 3.46849 0.634533 17.033 4.00559 3.88381 1.0267 8.11582 -89.2156 10.6275 2.40574 1.34133 -1.04181 2.46244 1.23411 -23.5835 1.89145 2.00239 -3.57086 1.89145 2.00239 92.1958 -24.7875 -104.188 37.9818 -15.7111 -15.6812 -17.3309 -13.1075 -32.2727 -12.0659 -0.202818 -3.34089 -86.1555 -48.8127 84.3174 -29.9353 14.5478 2.62852 8.10371 -10.5618 -2.23077 -2.45809 -0.0907115 -4.14577 5.72303 0.294783 1.56674 -7.05618 -0.0471988 1.27232 
-232.876 94.9452 246.41 101.464 34.2848 77.9469 -174.226 7.64428 79.7278 -26.9858 0.520634 -4.42102 72.8203 7.10721 1.19614 10.0802 -11.701 5.36768 174.774 2.80728 83.2319 -65.299 -19.1585 -7.05355 63.5137 -1.22778 -1.86096 23.5944 0.540277 6.11092 0.633979 8.08206 -89.4013 10.7007 1.53825 1.04874 -0.969679 1.58294 0.979996 -23.5061 1.15196 1.46254 -3.49341 1.15198 1.46254 91.8234 -25.4062 -104.759 40.4329 -16.5971 -11.552 -16.7566 -14.3805 -30.4509 -12.4164 -0.28816 -2.5595 -86.0577 -48.8931 84.4791 -24.8855 15.5461 -8.41405 8.60236 -7.47817 -6.76631 0.100443 -0.084332 -4.19453 3.58742 1.26906 0.940809 -7.48418 1.03288 1.60767 
-226.659 96.3362 240.855 102.346 34.6639 79.315 -175.529 -1.55541 81.4758 -21.3873 -0.259494 -2.52086 74.7715 8.22996 0.193779 14.4783 -10.2184 6.85242 178.594 11.5377 87.0011 -58.8147 -9.81696 -6.33133 70.3247 -5.4937 -2.40507 22.5118 1.26478 5.19741 0.36643 8.14627 -89.6516 10.5845 0.890147 0.616715 -1.08621 0.916426 0.576935 -23.6222 0.663654 0.855724 -3.6095 0.663638 0.85572 91.7805 -26.2153 -104.541 43.4452 -15.6007 -5.36282 -14.3396 -11.8053 -27.6802 -11.9929 -0.1381 -4.07858 -86.0743 -48.0969 84.3332 -19.2561 15.3629 -21.1244 9.51778 -4.36302 -10.8379 0.774362 -0.0769331 -4.06835 2.07441 1.63392 -1.41832 -8.32585 1.77338 1.55374 
-220.529 96.3935 236.574 101.756 38.437 82.1603 -174.542 -6.27662 84.5656 -19.8266 4.20414 -1.12453 78.037 9.82014 -0.602372 15.0827 -9.77264 6.64039 179.851 17.3255 92.2538 -41.0401 -7.15096 -4.0999 69.7434 -5.68697 -2.40067 21.7157 2.41235 2.55111 -0.233449 8.12618 -89.9488 10.6211 -0.441378 0.141125 -1.04981 -0.434731 0.160406 -23.5853 -0.463402 0.00194579 -3.57261 -0.4634 0.00194227 91.486 -27.7797 -104.585 44.2119 -15.3057 -0.631098 -12.284 -11.0701 -23.6457 -11.1846 -0.163724 -3.61458 -86.6899 -45.3409 82.9121 -15.2491 14.1974 -31.5849 9.89552 -4.16667 -15.4752 -0.872813 -0.101763 -5.02857 1.19687 1.3779 -4.76049 -7.48976 1.97813 2.75542 
-213.842 95.2718 231.133 102.173 41.922 82.2366 -173.744 -13.2812 86.5359 -17.3846 6.42644 -0.139713 82.6604 12.344 -2.29016 18.0369 -9.62016 9.15951 178.859 18.7096 92.6169 -19.4469 -8.85798 -1.55651 64.1727 -2.44524 1.28346 24.2224 0.811924 4.33406 -0.669501 8.21605 -90.0401 10.4426 -1.35186 0.0396349 -1.22766 -1.34882 0.0991025 -23.7682 -1.30127 -0.368558 -3.75553 -1.30127 -0.368563 91.667 -29.0112 -103.776 45.2138 -14.0489 4.21727 -10.6126 -11.1185 -20.3898 -12.4061 -0.241184 -3.02007 -87.5326 -43.2489 81.1689 -12.7808 10.37 -40.546 12.7348 1.12625 -19.2694 2.14568 -0.115269 -4.99712 0.953208 0.67652 -7.48726 -6.89352 1.66372 3.72895 
